<svg width="25" height="24" viewBox="0 0 25 24" fill="none" xmlns="http://www.w3.org/2000/svg">
<g clip-path="url(#clip0_53_161)">
<path fill-rule="evenodd" clip-rule="evenodd" d="M12.043 0.00463867C5.42858 0.00463867 0.067482 5.49708 0.067482 12.2735C0.067482 17.692 3.49937 22.2904 8.25677 23.9172C8.85391 24.0315 9.07702 23.6483 9.07702 23.3256C9.07702 23.0299 9.06389 22.0685 9.06389 21.0399C5.73043 21.7794 5.0283 19.5946 5.0283 19.5946C4.48366 18.1761 3.69623 17.7996 3.69623 17.7996C2.60695 17.0399 3.77497 17.0534 3.77497 17.0534C4.97581 17.1408 5.61232 18.3172 5.61232 18.3172C6.68191 20.1929 8.41426 19.6483 9.0967 19.3391C9.20169 18.5458 9.51667 18.008 9.85789 17.6988C7.2003 17.3895 4.39836 16.3341 4.39836 11.6349C4.39836 10.2971 4.86426 9.20128 5.632 8.34077C5.50733 8.03153 5.10049 6.78111 5.75012 5.09371C5.75012 5.09371 6.75409 4.7643 9.04421 6.35086C10.0022 6.08195 11.0259 5.94077 12.043 5.94077C13.0601 5.9475 14.0838 6.08195 15.0418 6.35086C17.3254 4.7643 18.3293 5.09371 18.3293 5.09371C18.979 6.78111 18.5721 8.03153 18.4475 8.34077C19.2152 9.20128 19.6811 10.2971 19.6811 11.6349C19.6811 16.3475 16.8792 17.3828 14.215 17.6853C14.6415 18.0685 15.0287 18.8147 15.0287 19.9576C15.0287 21.5979 15.0156 22.9223 15.0156 23.3256C15.0156 23.6551 15.2321 24.0315 15.8358 23.9172C20.5932 22.2904 24.0185 17.6988 24.0185 12.2735C24.0185 5.49708 18.6574 0.00463867 12.043 0.00463867Z" fill="#181616"/>
<path d="M4.60157 17.6181C4.57534 17.6786 4.48353 17.6988 4.39829 17.6584C4.31304 17.6181 4.26058 17.5374 4.29337 17.4769C4.3196 17.4164 4.4114 17.3962 4.49665 17.4366C4.58189 17.4769 4.63435 17.5576 4.60157 17.6181Z" fill="#181616"/>
<path d="M5.08716 18.1761C5.02814 18.2299 4.91666 18.203 4.84453 18.1223C4.76585 18.0349 4.75273 17.9206 4.81175 17.8668C4.87076 17.8131 4.97568 17.84 5.05437 17.9206C5.13306 18.008 5.14617 18.1223 5.08716 18.1761Z" fill="#181616"/>
<path d="M5.55961 18.882C5.48748 18.9358 5.36944 18.8887 5.29075 18.7744C5.21862 18.6669 5.21862 18.5324 5.29075 18.4786C5.36289 18.4248 5.48092 18.4719 5.55961 18.5795C5.63829 18.6937 5.63829 18.8282 5.55961 18.882Z" fill="#181616"/>
<path d="M6.20918 19.561C6.1436 19.6349 6.0059 19.6147 5.90098 19.5139C5.79606 19.4131 5.76983 19.2719 5.83541 19.1979C5.90098 19.124 6.04524 19.1442 6.1436 19.245C6.24852 19.3526 6.27475 19.4937 6.20918 19.561Z" fill="#181616"/>
<path d="M7.10154 19.9576C7.07531 20.0517 6.9376 20.0988 6.7999 20.0584C6.66219 20.0181 6.57695 19.9038 6.60318 19.8097C6.62941 19.7156 6.76711 19.6685 6.90481 19.7089C7.03596 19.7492 7.12777 19.8635 7.10154 19.9576Z" fill="#181616"/>
<path d="M8.07926 20.0315C8.08581 20.1324 7.96778 20.2198 7.82352 20.2198C7.67925 20.2265 7.56778 20.1391 7.56122 20.0383C7.56122 19.9374 7.6727 19.85 7.81696 19.85C7.96122 19.85 8.07926 19.9307 8.07926 20.0315Z" fill="#181616"/>
<path d="M8.99137 19.8769C9.01104 19.9778 8.91268 20.0786 8.76842 20.1055C8.63072 20.1324 8.49957 20.0719 8.48645 19.971C8.46678 19.8702 8.5717 19.7694 8.7094 19.7425C8.84711 19.7156 8.9717 19.7761 8.99137 19.8769Z" fill="#181616"/>
</g>
<defs>
<clipPath id="clip0_53_161">
<rect width="24.0167" height="24" fill="white" transform="translate(0.0513916)"/>
</clipPath>
</defs>
</svg>
