<svg width="22" height="20" viewBox="0 0 22 20" fill="none" xmlns="http://www.w3.org/2000/svg">
<path d="M10.1238 1.30119C10.499 0.589843 11.5177 0.589842 11.8929 1.30118L14.2824 5.83199C14.4336 6.11864 14.7143 6.31425 15.0355 6.35683L20.2824 7.05226C21.1279 7.16432 21.454 8.21543 20.8204 8.78642L17.1126 12.1281C16.8537 12.3614 16.735 12.7127 16.7992 13.0552L17.6986 17.8532C17.8504 18.6626 17.0134 19.2982 16.2744 18.9348L11.4497 16.5618C11.1714 16.4249 10.8453 16.4249 10.567 16.5618L5.74225 18.9348C5.00326 19.2982 4.16629 18.6626 4.31803 17.8532L5.21749 13.0552C5.28171 12.7127 5.16296 12.3614 4.90409 12.1281L1.19623 8.78642C0.562671 8.21543 0.888815 7.16432 1.73431 7.05226L6.98116 6.35683C7.30241 6.31425 7.58312 6.11864 7.73429 5.83199L10.1238 1.30119Z" fill="#FBED6D"/>
</svg>
