<svg width="25" height="24" viewBox="0 0 25 24" fill="none" xmlns="http://www.w3.org/2000/svg">
<g clip-path="url(#clip0_53_152)">
<path d="M12.0083 0C5.37613 0 0 5.3724 0 12C0 18.6276 5.37613 24 12.0083 24C18.6405 24 24.0167 18.6276 24.0167 12C24.0167 5.3724 18.6405 0 12.0083 0Z" fill="#0078D4"/>
<path opacity="0.05" d="M15.6108 18.6V13.2C15.6108 12.5382 15.0723 12 14.41 12C13.7477 12 13.2092 12.5382 13.2092 13.2V18.6H9.60667V8.39999H13.2092V9.01619C13.8336 8.61539 14.5613 8.39999 15.3106 8.39999C17.4625 8.39999 19.2133 10.1496 19.2133 12.3V18.6H15.6108ZM5.40375 18.6V8.39999H7.18459C6.15247 8.39999 5.40375 7.64279 5.40375 6.59939C5.40375 5.55659 6.16448 4.79999 7.21161 4.79999C8.22991 4.79999 8.98464 5.55119 9.00625 6.58739C9.00625 7.63979 8.24552 8.39999 7.1978 8.39999H9.00625V18.6H5.40375Z" fill="black"/>
<path opacity="0.07" d="M15.911 18.3V13.2C15.911 12.3732 15.238 11.7 14.41 11.7C13.582 11.7 12.909 12.3732 12.909 13.2V18.3H9.90688V8.70001H12.909V9.62041C13.5634 9.03421 14.4172 8.70001 15.3106 8.70001C17.2974 8.70001 18.9131 10.3146 18.9131 12.3V18.3H15.911ZM5.70396 18.3V8.70001H8.70605V18.3H5.70396ZM7.18459 8.10001C6.32659 8.10001 5.70396 7.46881 5.70396 6.59941C5.70396 5.73061 6.338 5.10001 7.21161 5.10001C8.07381 5.10001 8.68803 5.71381 8.70605 6.59341C8.70605 7.46881 8.0714 8.10001 7.1978 8.10001H7.18459Z" fill="black"/>
<path d="M6.00417 8.99999H8.40584V18H6.00417V8.99999ZM7.1978 7.79999H7.18459C6.46769 7.79999 6.00417 7.26599 6.00417 6.59939C6.00417 5.91839 6.4821 5.39999 7.21161 5.39999C7.94232 5.39999 8.39203 5.91839 8.40584 6.59939C8.40584 7.26599 7.94232 7.79999 7.1978 7.79999ZM18.6129 12.3C18.6129 10.4772 17.1347 8.99999 15.3106 8.99999C14.1927 8.99999 13.2062 9.55679 12.6088 10.4064V8.99999H10.2071V18H12.6088V13.2C12.6088 12.2058 13.4151 11.4 14.41 11.4C15.4049 11.4 16.2113 12.2058 16.2113 13.2V18H18.6129C18.6129 18 18.6129 12.5526 18.6129 12.3Z" fill="white"/>
</g>
<defs>
<clipPath id="clip0_53_152">
<rect width="24.0167" height="24" fill="white"/>
</clipPath>
</defs>
</svg>
