<svg width="25" height="24" viewBox="0 0 25 24" fill="none" xmlns="http://www.w3.org/2000/svg">
<g clip-path="url(#clip0_53_171)">
<path d="M16.9391 0H7.23179C3.28667 0 0.0770874 3.20735 0.0770874 7.14973V16.8503C0.0770874 20.7926 3.28667 24 7.23179 24H16.9391C20.8842 24 24.0938 20.7926 24.0938 16.8503V7.14973C24.0937 3.20735 20.8841 0 16.9391 0ZM21.6777 16.8503C21.6777 19.4655 19.5561 21.5856 16.9391 21.5856H7.23179C4.61474 21.5856 2.49316 19.4655 2.49316 16.8503V7.14973C2.49316 4.53446 4.61474 2.4144 7.23179 2.4144H16.9391C19.5561 2.4144 21.6777 4.53446 21.6777 7.14973V16.8503Z" fill="url(#paint0_linear_53_171)"/>
<path d="M12.0854 5.79276C8.66036 5.79276 5.87386 8.57732 5.87386 12C5.87386 15.4226 8.66036 18.2072 12.0854 18.2072C15.5105 18.2072 18.297 15.4227 18.297 12C18.297 8.57728 15.5105 5.79276 12.0854 5.79276ZM12.0854 15.7929C9.98921 15.7929 8.28993 14.0948 8.28993 12C8.28993 9.90526 9.98926 8.20715 12.0854 8.20715C14.1816 8.20715 15.8809 9.90526 15.8809 12C15.8809 14.0947 14.1816 15.7929 12.0854 15.7929Z" fill="url(#paint1_linear_53_171)"/>
<path d="M18.309 7.32673C19.1311 7.32673 19.7974 6.66081 19.7974 5.83935C19.7974 5.01788 19.1311 4.35196 18.309 4.35196C17.487 4.35196 16.8206 5.01788 16.8206 5.83935C16.8206 6.66081 17.487 7.32673 18.309 7.32673Z" fill="url(#paint2_linear_53_171)"/>
</g>
<defs>
<linearGradient id="paint0_linear_53_171" x1="12.0854" y1="23.9301" x2="12.0854" y2="0.186412" gradientUnits="userSpaceOnUse">
<stop stop-color="#E09B3D"/>
<stop offset="0.3" stop-color="#C74C4D"/>
<stop offset="0.6" stop-color="#C21975"/>
<stop offset="1" stop-color="#7024C4"/>
</linearGradient>
<linearGradient id="paint1_linear_53_171" x1="12.0854" y1="23.9301" x2="12.0854" y2="0.186423" gradientUnits="userSpaceOnUse">
<stop stop-color="#E09B3D"/>
<stop offset="0.3" stop-color="#C74C4D"/>
<stop offset="0.6" stop-color="#C21975"/>
<stop offset="1" stop-color="#7024C4"/>
</linearGradient>
<linearGradient id="paint2_linear_53_171" x1="18.309" y1="23.9301" x2="18.309" y2="0.186409" gradientUnits="userSpaceOnUse">
<stop stop-color="#E09B3D"/>
<stop offset="0.3" stop-color="#C74C4D"/>
<stop offset="0.6" stop-color="#C21975"/>
<stop offset="1" stop-color="#7024C4"/>
</linearGradient>
<clipPath id="clip0_53_171">
<rect width="24.0167" height="24" fill="white" transform="translate(0.0770874)"/>
</clipPath>
</defs>
</svg>
