<svg width="36" height="48" viewBox="0 0 36 48" fill="none" xmlns="http://www.w3.org/2000/svg">
<g clip-path="url(#clip0_301_2)">
<path d="M35.9974 14.294L17.9961 7.1475L0 14.294V7.1475L17.9987 0.000976562L36 7.1475V14.294H35.9974Z" fill="#A435F0"/>
<path d="M0 20.2957H9.42888V36.0492C9.42888 40.1193 13.8481 42.1036 17.9987 42.1036C22.185 42.1036 26.572 40.0665 26.572 35.9946V20.2957H36V36.4248C36 40.1739 34.2862 43.0673 30.8578 45.0511C27.4276 47.0336 23.1435 47.9991 17.9193 47.9991C12.7003 47.9991 8.41369 47.0354 5.06548 45.0511C1.71379 43.0691 0 40.2831 0 36.585V20.2957Z" fill="black"/>
</g>
<defs>
<clipPath id="clip0_301_2">
<rect width="36" height="48" fill="white"/>
</clipPath>
</defs>
</svg>
