<svg width="25" height="24" viewBox="0 0 25 24" fill="none" xmlns="http://www.w3.org/2000/svg">
<g clip-path="url(#clip0_53_157)">
<path d="M12.034 23.9925C9.68611 23.9929 7.3898 23.3041 5.43018 22.0118L0.815972 23.4848L2.31176 19.0298C0.822488 16.9883 0.0218378 14.5263 0.025673 12C0.025673 5.38651 5.40916 0.00750732 12.0265 0.00750732C18.6439 0.00750732 24.0273 5.38651 24.0273 12C24.0273 18.6135 18.6461 23.9925 12.0265 23.9925H12.034Z" fill="#FEFEFE"/>
<path d="M12.0341 0.00683594C5.41598 0.00683594 0.0328635 5.38641 0.0328635 11.9997C0.0328635 14.6223 0.879538 17.0549 2.3188 19.0293L0.822788 23.4855L5.43509 22.012C7.33274 23.267 9.59777 23.9931 12.039 23.9931C18.6571 23.9931 24.0402 18.6134 24.0402 12.0003C24.0402 5.3872 18.6569 0.00743257 12.039 0.00743257H12.0321L12.0341 0.00683594Z" fill="url(#paint0_linear_53_157)"/>
<path d="M8.68296 6.09901C8.4578 5.54176 8.27392 5.52151 7.92118 5.49901L7.5189 5.48401C7.06108 5.48401 6.58075 5.61901 6.29105 5.91376C5.9383 6.27376 5.06319 7.11226 5.06319 8.83276C5.06319 10.5533 6.31882 12.2168 6.48918 12.45C6.66556 12.675 8.93738 16.2645 12.4656 17.724C15.2245 18.8663 16.0426 18.7605 16.6708 18.6263C17.5879 18.429 18.7377 17.7518 19.0274 16.9343C19.3171 16.1168 19.3171 15.4193 19.2315 15.2693C19.146 15.1193 18.9141 15.0443 18.5613 14.8605C18.2086 14.6768 16.4944 13.8383 16.1694 13.725C15.8519 13.605 15.5487 13.6478 15.3086 13.986C14.9708 14.4585 14.6383 14.9385 14.3704 15.2265C14.1588 15.4515 13.8128 15.4815 13.5238 15.3615C13.1358 15.1995 12.049 14.8185 10.7094 13.6268C9.67214 12.7043 8.96665 11.5538 8.76176 11.2088C8.55687 10.8563 8.74075 10.6515 8.90286 10.461C9.07923 10.242 9.2481 10.0875 9.42522 9.88351C9.60235 9.67951 9.70066 9.57301 9.81324 9.33376C9.93333 9.10876 9.84852 8.86126 9.76371 8.68501C9.6789 8.50876 8.97341 6.78751 8.68446 6.09001L8.68296 6.09901Z" fill="#FEFEFE"/>
</g>
<defs>
<linearGradient id="paint0_linear_53_157" x1="-90.1792" y1="-40.1747" x2="-90.1792" y2="-39.2948" gradientUnits="userSpaceOnUse">
<stop stop-color="#6EBF61"/>
<stop offset="0.231" stop-color="#50A557"/>
<stop offset="0.522" stop-color="#2A904F"/>
<stop offset="0.812" stop-color="#50A557"/>
<stop offset="1" stop-color="#6EBF63"/>
</linearGradient>
<clipPath id="clip0_53_157">
<rect width="24.0167" height="24" fill="white" transform="translate(0.0256958)"/>
</clipPath>
</defs>
</svg>
